<?xml version="1.0" standalone="no"?><!DOCTYPE svg PUBLIC "-//W3C//DTD SVG 1.1//EN" "http://www.w3.org/Graphics/SVG/1.1/DTD/svg11.dtd"><svg t="1686130016912" class="icon" viewBox="0 0 1024 1024" version="1.1" xmlns="http://www.w3.org/2000/svg" p-id="20484" xmlns:xlink="http://www.w3.org/1999/xlink" width="16" height="16"><path d="M512 896a384 384 0 1 1 384-384 384.426667 384.426667 0 0 1-384 384z m0-718.72A334.72 334.72 0 1 0 846.72 512 335.146667 335.146667 0 0 0 512 177.28z m-27.52 520.362667a30.805333 30.805333 0 1 1 61.610667 0 30.805333 30.805333 0 0 1-61.610667 0z m29.781333-66.986667a24.661333 24.661333 0 0 1-24.661333-24.618667v-38.997333a92.586667 92.586667 0 0 1 41.088-76.202667c16.213333-9.386667 31.274667-20.821333 44.8-33.877333 13.141333-14.08 20.48-32.64 20.48-51.925333a80.298667 80.298667 0 0 0-82.133333-78.890667 78.250667 78.250667 0 0 0-82.133334 76.629333 24.661333 24.661333 0 1 1-49.28 0 130.816 130.816 0 0 1 261.418667 2.261334 125.866667 125.866667 0 0 1-34.304 86.186666c-16.938667 16.64-35.882667 31.104-56.448 42.965334-11.733333 6.357333-15.018667 27.093333-15.402667 33.877333v38.186667a24.661333 24.661333 0 0 1-23.466666 24.448z" fill="currentColor" p-id="20485"></path></svg>