<?xml version="1.0" standalone="no"?><!DOCTYPE svg PUBLIC "-//W3C//DTD SVG 1.1//EN" "http://www.w3.org/Graphics/SVG/1.1/DTD/svg11.dtd"><svg t="1686121006500" class="icon" viewBox="0 0 1024 1024" version="1.1" xmlns="http://www.w3.org/2000/svg" p-id="6458" xmlns:xlink="http://www.w3.org/1999/xlink" width="16" height="16"><path d="M896 102.4h-819.2C34.4576 102.4 0 136.8576 0 179.2v512c0 42.3424 34.4576 76.8 76.8 76.8H460.8v102.4H281.6a25.6 25.6 0 0 0 0 51.2h409.6a25.6 25.6 0 0 0 0-51.2H512v-102.4h384c42.3424 0 76.8-34.4576 76.8-76.8v-512c0-42.3424-34.4576-76.8-76.8-76.8z m25.6 588.8a25.6 25.6 0 0 1-25.6 25.6h-819.2a25.6 25.6 0 0 1-25.6-25.6v-512a25.6 25.6 0 0 1 25.6-25.6h819.2a25.6 25.6 0 0 1 25.6 25.6v512z" p-id="6459" fill="currentColor"></path></svg>